<?xml version="1.0" encoding="UTF-8" standalone="no"?>
<!DOCTYPE svg PUBLIC "-//W3C//DTD SVG 1.1//EN" "http://www.w3.org/Graphics/SVG/1.1/DTD/svg11.dtd">
<svg width="100%" height="100%" viewBox="0 0 629 355" version="1.1" xmlns="http://www.w3.org/2000/svg" xmlns:xlink="http://www.w3.org/1999/xlink" xml:space="preserve" xmlns:serif="http://www.serif.com/" style="fill-rule:evenodd;clip-rule:evenodd;stroke-linecap:round;stroke-linejoin:round;stroke-miterlimit:1.5;">
    <g transform="matrix(1,0,0,1,-245.576,-203.233)">
        <g transform="matrix(1,0,0,1,-754.695,48.3779)">
            <path d="M1268.62,283.033C1263.98,281.299 1259.37,279.595 1254.8,277.921C1258.01,270.132 1260.67,265.509 1265.19,259.546C1269.31,261.058 1273.44,262.593 1277.61,264.152C1283.04,266.063 1294.81,270.272 1310.71,276.329C1317.32,278.845 1356.38,296.709 1369.67,307.285C1371.85,309.014 1373.36,310.593 1374.05,311.882C1374.76,313.197 1374.75,314.344 1374.21,315.265C1373.53,316.434 1372.12,317.263 1369.99,317.554C1367.49,317.894 1363.83,317.55 1359.36,316.65C1333.05,311.349 1277.35,286.902 1268.62,283.033ZM1151.87,325.423C1085.75,292.69 1036.52,262.725 1015.86,242.446C1009.53,236.24 1005.57,230.588 1003.74,225.933C1002.82,223.575 1002.34,221.345 1002.23,219.276L1002.4,215.55L1003.43,211.795L1005.34,208.327L1007.86,205.499C1009.41,204.088 1011.34,202.811 1013.69,201.763C1020.43,198.756 1032.41,197.6 1048.81,199.173C1077.15,201.891 1120.75,212.129 1173.45,228.391C1170.06,233.703 1165.95,240.349 1162.33,246.717C1113.66,231.86 1073.39,222.46 1046.82,219.911C1038,219.066 1030.88,218.961 1025.67,219.849C1025.22,219.926 1024.73,220.046 1024.25,220.18C1024.74,221.011 1025.34,221.93 1025.93,222.667C1029.96,227.673 1036.55,233.472 1045.28,240.021C1068.67,257.579 1106.58,279.626 1154.11,303.387C1167.89,220.27 1240.19,156.809 1327.19,156.809C1396.93,156.809 1457.22,197.584 1485.5,256.574C1461.24,218.451 1418.62,193.137 1370.12,193.137C1294.71,193.137 1233.48,254.366 1233.48,329.782C1233.48,333.499 1233.63,337.181 1233.92,340.823C1255.47,350.349 1278.07,359.919 1301.43,369.376C1360.69,393.357 1416.89,413.364 1465,428.088C1476.52,416.967 1486.09,403.841 1493.15,389.276C1488.1,403.958 1481.16,417.763 1472.61,430.396C1514.75,443.028 1550.23,451.398 1575.46,454.576C1586.28,455.939 1595.05,456.353 1601.43,455.56C1603.08,455.355 1605.13,454.746 1606.15,454.417C1606.38,452.683 1605.64,450.823 1604.33,448.664C1602.28,445.296 1598.98,441.694 1594.36,437.657C1573.75,419.631 1529.85,395.62 1450.43,360.78L1443.13,357.58C1428.79,353.222 1415.57,348.41 1411.23,346.907C1404.1,344.444 1398.35,335.101 1401.27,328.147C1404.19,321.192 1414.74,319.073 1421.81,321.705C1425.76,323.176 1435.91,327.772 1452.04,338.737L1458.8,341.702C1541.3,377.89 1586.67,403.251 1608.08,421.975C1627.13,438.642 1629.55,452.542 1625.16,463.397L1623.29,466.813L1620.82,469.61C1619.3,471.015 1617.41,472.288 1615.1,473.339C1610.55,475.413 1603.77,476.716 1594.91,476.778C1568.71,476.963 1520.16,466.568 1459.07,447.932C1426.9,484.569 1379.73,507.71 1327.19,507.71C1230.36,507.71 1151.74,429.093 1151.74,332.259C1151.74,329.97 1151.78,327.691 1151.87,325.423ZM1445.52,443.731C1399.88,429.339 1347.99,410.693 1293.62,388.688C1274.59,380.986 1256.06,373.2 1238.18,365.416C1253.87,423.576 1307.03,466.428 1370.12,466.428C1397.98,466.428 1423.91,458.072 1445.52,443.731Z" style="fill:white;stroke:white;stroke-width:3.91px;"/>
        </g>
    </g>
</svg>
