<?xml version="1.0" encoding="UTF-8" standalone="no"?>
<!DOCTYPE svg PUBLIC "-//W3C//DTD SVG 1.1//EN" "http://www.w3.org/Graphics/SVG/1.1/DTD/svg11.dtd">
<svg width="100%" height="100%" viewBox="0 0 625 355" version="1.1" xmlns="http://www.w3.org/2000/svg" xmlns:xlink="http://www.w3.org/1999/xlink" xml:space="preserve" xmlns:serif="http://www.serif.com/" style="fill-rule:evenodd;clip-rule:evenodd;stroke-linecap:round;stroke-linejoin:round;stroke-miterlimit:1.5;">
    <g transform="matrix(1,0,0,1,-247.53,-203.233)">
        <g transform="matrix(1,0,0,1,-754.695,48.3779)">
            <g transform="matrix(1,0,0,1,38.8056,-42.9338)">
                <path d="M1454.35,432.209C1430.66,501.091 1365.26,550.644 1288.38,550.644C1191.55,550.644 1112.93,472.027 1112.93,375.193C1112.93,278.359 1191.55,199.742 1288.38,199.742C1358.12,199.742 1418.41,240.518 1446.69,299.508C1422.44,261.385 1379.81,236.071 1331.32,236.071C1255.9,236.071 1194.67,297.3 1194.67,372.716C1194.67,448.133 1255.9,509.361 1331.32,509.361C1385.41,509.361 1432.21,477.857 1454.35,432.209Z" style="fill:white;stroke:white;stroke-width:3.91px;"/>
            </g>
            <g transform="matrix(0.992787,0.119895,-0.119895,0.992787,49.9861,-155.128)">
                <g transform="matrix(0.965262,0.261282,-0.170417,0.629575,14.0476,-202.954)">
                    <path d="M1221.33,237.344C1170.63,244.223 1129.78,254.023 1104.19,265.684C1095.71,269.551 1089.06,273.5 1084.57,277.755C1084.18,278.123 1083.77,278.579 1083.37,279.046C1084.14,279.942 1085.04,280.906 1085.87,281.612C1091.48,286.408 1099.76,290.861 1110.31,295.149C1163.91,316.948 1271.91,331.666 1396.28,331.666C1520.65,331.666 1628.66,316.948 1682.26,295.149C1692.8,290.861 1701.09,286.408 1706.7,281.612C1708.15,280.371 1709.82,278.329 1710.65,277.271C1710.21,274.678 1708.83,272.46 1706.8,270.146C1703.64,266.536 1699.23,263.315 1693.43,260.233C1667.57,246.468 1617.87,237.59 1531.17,233.757L1520.76,233.297L1521.36,201.368L1531.77,201.829C1621.82,205.81 1673.39,215.759 1700.26,230.057C1724.18,242.784 1731.64,261.148 1731.64,279.102L1731.19,285.032L1729.95,290.427C1729.06,293.3 1727.79,296.196 1726.05,299.016C1722.61,304.581 1716.81,310.333 1708.62,315.516C1665.05,343.099 1541.62,363.608 1396.28,363.608C1250.94,363.608 1127.52,343.099 1083.95,315.516C1075.76,310.333 1069.96,304.581 1066.52,299.016C1064.78,296.196 1063.5,293.3 1062.62,290.427L1061.38,285.032L1060.93,279.102L1061.4,273.076L1062.67,267.608C1063.58,264.711 1064.89,261.788 1066.67,258.945C1071.8,250.792 1082.46,242.263 1098.26,235.066C1125.55,222.628 1169.81,212.101 1224.75,204.905C1223.61,214.4 1222.29,226.212 1221.33,237.344ZM1321.49,196.417C1329.32,196.027 1337.27,195.698 1345.31,195.432L1355.72,195.087L1356.17,227.021L1345.76,227.366C1336.62,227.669 1327.61,228.051 1318.74,228.51C1318.8,215.594 1319.54,207.488 1321.49,196.417Z" style="fill:white;"/>
                </g>
                <g transform="matrix(1,0,0,1,-48.9479,-12.2214)">
                    <path d="M1310.53,299.401C1310.53,299.401 1413.72,331.473 1418.73,319.896C1421.89,312.602 1360.49,292.891 1351.97,290.773C1328.88,285.029 1314.25,281.909 1314.25,281.909" style="fill:white;stroke:white;stroke-width:2.81px;stroke-linecap:square;"/>
                </g>
                <g transform="matrix(2.07547,0.590694,-0.590694,2.07547,-821.092,-570.888)">
                    <path d="M1110.09,107.968C1112.69,107.861 1120.96,108.147 1136.04,112.185C1147.36,115.217 1137.17,115.035 1137.17,115.035C1137.17,115.035 1145.05,116.315 1136.32,117.984C1126.82,119.801 1113.34,120.424 1110.09,120.634C1106.6,120.86 1102.47,117.899 1102.47,114.404C1102.47,110.908 1106.6,108.111 1110.09,107.968Z" style="fill:white;"/>
                </g>
            </g>
        </g>
    </g>
</svg>
