<?xml version="1.0" encoding="UTF-8" standalone="no"?>
<!DOCTYPE svg PUBLIC "-//W3C//DTD SVG 1.1//EN" "http://www.w3.org/Graphics/SVG/1.1/DTD/svg11.dtd">
<svg width="100%" height="100%" viewBox="0 0 2035 267" version="1.1" xmlns="http://www.w3.org/2000/svg" xmlns:xlink="http://www.w3.org/1999/xlink" xml:space="preserve" xmlns:serif="http://www.serif.com/" style="fill-rule:evenodd;clip-rule:evenodd;stroke-linejoin:round;stroke-miterlimit:2;">
    <g transform="matrix(1,0,0,1,-100.677,-851.354)">
        <g transform="matrix(1.06419,0,0,1.06419,-31.419,-369.129)">
            <path d="M125.391,1281.94C122.957,1278.04 124.15,1272.89 128.052,1270.46C131.955,1268.03 137.099,1269.22 139.533,1273.12C139.533,1273.12 174.747,1329.74 238.54,1331.85C266.291,1332.77 299.264,1323.28 337.116,1295.04C439.204,1218.87 493.79,1187.23 584.312,1261.44C650.495,1315.7 678.817,1345.91 745.012,1295.11C788.633,1261.63 833.04,1242.67 877.512,1249.24C907.347,1253.65 937.414,1269.49 967.357,1300.8C1034.22,1370.7 1117.75,1323 1152.72,1293.72C1196.34,1257.2 1253.91,1243.62 1302.14,1252.94C1335.12,1259.31 1363.76,1276.32 1381.19,1303.69C1396.91,1328.38 1417.34,1342.02 1439.12,1345.66C1472.18,1351.18 1507.69,1333.88 1533.63,1299.89C1584.04,1233.84 1647.68,1217.77 1703.95,1287.54C1738.76,1330.71 1785.26,1316.3 1844.03,1281.64C1877.68,1261.79 1914.57,1262.83 1948.56,1274.05C1981.47,1284.91 2018.67,1299.65 2032.85,1324.56C2037.56,1332.84 2036.63,1339.76 2031.06,1344.12C2024.66,1349.14 2019.46,1346.29 2016.05,1343.21C1996.26,1325.34 1973.94,1299.98 1943.34,1289.88C1913.81,1280.13 1881.73,1278.76 1852.5,1296C1785.47,1335.52 1739.09,1342.71 1692.63,1299.78C1658.62,1268.34 1590.01,1253.49 1546.88,1310C1516.7,1349.55 1475.25,1359.04 1436.37,1362.1C1417.9,1363.55 1385.83,1358.53 1367.13,1329.16C1352.14,1305.62 1323.21,1289.64 1294.85,1284.16C1251.08,1275.71 1203.01,1273.35 1163.42,1306.5C1124.17,1339.36 1021.28,1403.16 946.231,1324.7C919.411,1296.66 901.798,1269.68 875.075,1265.73C834.712,1259.76 794.749,1277.95 755.159,1308.33C682.666,1363.96 622.196,1330.73 542.512,1281.39C507.337,1259.61 440.34,1238.82 347.082,1308.4C305.27,1339.6 268.642,1349.53 237.988,1348.51C165.502,1346.11 125.391,1281.94 125.391,1281.94ZM1032.48,1187.61C1032.74,1186.58 1033.66,1185.85 1034.73,1185.85C1035.79,1185.85 1036.72,1186.58 1036.98,1187.61L1042.33,1209.25L1064.57,1207.65C1065.63,1207.58 1066.61,1208.24 1066.94,1209.25C1067.27,1210.26 1066.86,1211.37 1065.96,1211.93L1047.03,1223.71L1055.42,1244.37C1055.82,1245.35 1055.5,1246.49 1054.63,1247.11C1053.77,1247.74 1052.6,1247.69 1051.78,1247.01L1034.73,1232.65L1017.68,1247.01C1016.86,1247.69 1015.69,1247.74 1014.82,1247.11C1013.96,1246.49 1013.64,1245.35 1014.04,1244.37L1022.43,1223.71L1003.5,1211.93C1002.6,1211.37 1002.19,1210.26 1002.52,1209.25C1002.85,1208.24 1003.83,1207.58 1004.89,1207.65L1027.13,1209.25L1032.48,1187.61ZM1616.67,1335.43C1616.61,1334.37 1617.29,1333.4 1618.31,1333.09C1619.33,1332.78 1620.43,1333.21 1620.97,1334.12L1632.39,1353.27L1653.2,1345.27C1654.2,1344.89 1655.32,1345.24 1655.93,1346.11C1656.54,1346.98 1656.48,1348.16 1655.78,1348.96L1641.1,1365.74L1655.13,1383.06C1655.8,1383.88 1655.82,1385.06 1655.18,1385.91C1654.54,1386.76 1653.4,1387.06 1652.42,1386.64L1631.93,1377.87L1619.79,1396.57C1619.21,1397.46 1618.1,1397.84 1617.09,1397.5C1616.09,1397.15 1615.45,1396.16 1615.54,1395.1L1617.56,1372.9L1596.02,1367.13C1594.99,1366.86 1594.29,1365.92 1594.31,1364.85C1594.33,1363.79 1595.07,1362.87 1596.11,1362.64L1617.84,1357.69L1616.67,1335.43ZM460.679,1303.88C461.127,1302.91 462.176,1302.37 463.222,1302.58C464.267,1302.78 465.04,1303.67 465.094,1304.73L466.231,1327L488.363,1329.66C489.421,1329.79 490.255,1330.62 490.385,1331.68C490.515,1332.74 489.908,1333.75 488.913,1334.13L468.091,1342.09L472.393,1363.96C472.599,1365.01 472.065,1366.06 471.1,1366.51C470.135,1366.96 468.988,1366.69 468.318,1365.86L454.313,1348.52L434.839,1359.37C433.909,1359.89 432.745,1359.71 432.018,1358.93C431.292,1358.15 431.19,1356.98 431.771,1356.08L443.937,1337.4L427.6,1322.24C426.819,1321.51 426.633,1320.35 427.149,1319.42C427.665,1318.49 428.75,1318.03 429.778,1318.3L451.303,1324.1L460.679,1303.88ZM1073.82,1150.71C1073.49,1150.02 1073.68,1149.2 1074.27,1148.72C1074.86,1148.24 1075.7,1148.22 1076.31,1148.68L1089.04,1158.24L1100.63,1147.32C1101.18,1146.8 1102.02,1146.72 1102.66,1147.13C1103.3,1147.55 1103.58,1148.34 1103.33,1149.06L1098.17,1164.12L1112.14,1171.77C1112.81,1172.14 1113.14,1172.91 1112.94,1173.64C1112.75,1174.38 1112.08,1174.89 1111.32,1174.88L1095.4,1174.63L1092.44,1190.27C1092.3,1191.02 1091.67,1191.58 1090.91,1191.62C1090.15,1191.66 1089.46,1191.18 1089.23,1190.45L1084.55,1175.23L1068.76,1177.26C1068,1177.35 1067.28,1176.92 1067.01,1176.21C1066.73,1175.51 1066.97,1174.7 1067.6,1174.26L1080.62,1165.11L1073.82,1150.71ZM1771.56,1225.68C1771.88,1224.99 1772.64,1224.61 1773.38,1224.76C1774.13,1224.91 1774.68,1225.55 1774.71,1226.31L1775.44,1242.21L1791.24,1244.2C1791.99,1244.3 1792.59,1244.89 1792.67,1245.65C1792.76,1246.41 1792.33,1247.12 1791.61,1247.39L1776.71,1253L1779.7,1268.64C1779.85,1269.39 1779.46,1270.14 1778.77,1270.45C1778.08,1270.77 1777.26,1270.58 1776.79,1269.98L1766.85,1257.54L1752.9,1265.22C1752.23,1265.59 1751.4,1265.45 1750.88,1264.89C1750.37,1264.34 1750.3,1263.5 1750.72,1262.86L1759.48,1249.57L1747.86,1238.67C1747.31,1238.15 1747.18,1237.32 1747.55,1236.65C1747.92,1235.99 1748.7,1235.67 1749.43,1235.87L1764.79,1240.09L1771.56,1225.68Z" style="fill:white;"/>
        </g>
    </g>
</svg>
